<svg xmlns="http://www.w3.org/2000/svg" width="30" height="30" viewBox="0 0 30 30">
    <path d="M15 18.182A3.181 3.181 0 0 0 18.182 15 3.181 3.181 0 0 0 15 11.818 3.181 3.181 0 0 0 11.818 15 3.181 3.181 0 0 0 15 18.182zm0 1.364A4.539 4.539 0 0 1 10.455 15 4.539 4.539 0 0 1 15 10.455 4.539 4.539 0 0 1 19.545 15 4.539 4.539 0 0 1 15 19.545zm-9.318-3.864a.682.682 0 1 1 0-1.364h2.273a.682.682 0 1 1 0 1.364zm16.364 0a.682.682 0 1 1 0-1.364h2.273a.682.682 0 1 1 0 1.364zM15 8.636a.661.661 0 0 1-.682-.682V5.682a.682.682 0 1 1 1.364 0v2.273a.661.661 0 0 1-.682.681zM15 25a.661.661 0 0 1-.682-.682v-2.273a.682.682 0 1 1 1.364 0v2.273A.661.661 0 0 1 15 25zM9.545 10.5 8.25 9.227a.629.629 0 0 1-.193-.489.759.759 0 0 1 .193-.488.686.686 0 0 1 .977 0L10.5 9.545a.7.7 0 0 1 .182.477.617.617 0 0 1-.182.455.6.6 0 0 1-.466.2.711.711 0 0 1-.489-.177zm11.228 11.25-1.273-1.3a.711.711 0 0 1-.182-.489.6.6 0 0 1 .2-.466.583.583 0 0 1 .455-.2.654.654 0 0 1 .477.2l1.3 1.273a.629.629 0 0 1 .193.489.759.759 0 0 1-.193.489.686.686 0 0 1-.977 0zM19.5 10.5a.659.659 0 0 1 0-.955l1.273-1.3a.629.629 0 0 1 .489-.193.759.759 0 0 1 .489.193.686.686 0 0 1 0 .977L20.455 10.5a.631.631 0 0 1-.466.182.711.711 0 0 1-.489-.182zM8.25 21.75a.686.686 0 0 1 0-.977l1.3-1.273a.675.675 0 1 1 .955.955l-1.273 1.3a.629.629 0 0 1-.489.193.759.759 0 0 1-.489-.193zM15 15z" data-name="Group 53238"/>
</svg>
